<?xml version="1.0" encoding="utf-8"?>
<!-- Generator: Adobe Illustrator 19.0.0, SVG Export Plug-In . SVG Version: 6.00 Build 0)  -->
<svg version="1.1" id="Livello_1" xmlns="http://www.w3.org/2000/svg" xmlns:xlink="http://www.w3.org/1999/xlink" x="0px" y="0px"
	 viewBox="0 0 2834.6 1417.3" style="enable-background:new 0 0 2834.6 1417.3;" xml:space="preserve">
<style type="text/css">
	.st0{enable-background:new    ;}
	.st1{fill:#33BBA2;}
</style>
<g id="XMLID_7_">
	<g id="XMLID_1_" class="st0">
		<path id="XMLID_46_" class="st1" d="M553.6,902.6c-24.4,0-36.7-12.2-36.7-36.7v-307c0-24.4,12.2-36.7,36.7-36.7h129.5
			c39.9,0,70.9,8.7,92.7,26.1c22,17.4,32.8,41.7,32.8,72.6c0,20.5-5.2,38.2-15.6,52.9c-10.4,14.8-24.7,25.5-43.2,32.4
			c21.5,6.1,38.3,16.8,50.4,32.1s18,34.7,18,58c0,33.8-11.5,60-34.2,78.5c-22.9,18.5-54.5,27.8-95.2,27.8L553.6,902.6L553.6,902.6z
			 M583.3,683.5h88c47,0,70.7-18.2,70.7-54.5s-23.5-54.5-70.7-54.5h-88V683.5z M583.3,850.2h97.1c47.5,0,71.2-19.1,71.2-57.1
			c0-38.2-23.7-57.1-71.2-57.1h-97.1V850.2z"/>
		<path id="XMLID_43_" class="st1" d="M924.6,902.6c-24.4,0-36.7-12.2-36.7-36.7v-307c0-24.4,12.2-36.7,36.7-36.7h104.6
			c63.7,0,112.9,16.3,147.6,49c34.7,32.7,52.1,79.7,52.1,140.8c0,60.8-17.4,107.7-52.1,140.8s-83.9,49.6-147.6,49.6H924.6z
			 M957,845.3h68c87.7,0,131.7-44.4,131.7-133.2c0-88.4-43.8-132.7-131.7-132.7h-68V845.3z"/>
		<path id="XMLID_40_" class="st1" d="M1413,907.9c-27.3,0-51-5.5-71.2-16.6c-20.2-11.2-35.7-27-46.9-47.8
			c-11.2-20.6-16.6-45.1-16.6-73.2s5.5-52.4,16.6-72.9s26.7-36.4,46.9-47.5c20.2-11.2,43.8-16.6,71.2-16.6c27.3,0,51,5.7,71.2,16.6
			c20.2,11.2,35.7,27,46.9,47.5c11.2,20.5,16.6,44.8,16.6,72.9s-5.7,52.4-16.6,73.2c-11.2,20.6-26.7,36.7-46.9,47.8
			C1464,902.4,1440.3,907.9,1413,907.9z M1413,856.7c20.2,0,36.4-7.3,48.6-21.8c12.2-14.5,18.3-36,18.3-64.5
			c0-28.7-6.1-50.3-18.3-64.5c-12.2-14.2-28.4-21.4-48.6-21.4s-36.4,7.2-48.6,21.4c-12.2,14.2-18.3,35.7-18.3,64.5
			c0,28.4,6.1,49.9,18.3,64.5C1376.6,849.4,1392.8,856.7,1413,856.7z"/>
		<path id="XMLID_15_" class="st1" d="M1725.2,907.9c-27.6,0-51.8-5.7-72.2-17c-20.5-11.3-36.4-27.5-47.5-48.3
			c-11.2-20.9-16.6-45.4-16.6-73.3c0-28.1,5.5-52.2,16.6-72.6c11.2-20.3,27-35.9,47.5-46.9c20.5-11,44.6-16.5,72.2-16.5
			c11.9,0,24.7,1.7,38.6,4.9c13.9,3.2,26.9,8.7,39.1,16.2c7.2,4.3,11.5,9.9,12.7,16.6c1.2,6.9,0.3,13.1-2.7,18.9
			c-3.1,5.8-7.5,9.9-13.4,12.4s-12.7,1.7-20.2-2.7c-16.5-9.3-32.5-14.1-48-14.1c-23.4,0-41.4,7.3-54.2,21.8
			c-12.8,14.5-19.1,35.3-19.1,62.3c0,26.6,6.4,47.5,19.1,62.8c12.8,15.3,30.9,22.9,54.2,22.9c15.4,0,31.5-4.4,48-13.4
			c7.5-4.3,14.2-5.2,20-2.7c5.8,2.6,9.9,6.7,12.4,12.7c2.4,6,3.1,12.2,1.7,18.9s-5.7,12.1-12.4,16.5c-11.9,7.2-24.4,12.4-37.7,15.6
			C1749.6,906.4,1737.1,907.9,1725.2,907.9z"/>
		<path id="XMLID_14_" class="st1" d="M1979.8,907.9c-69.8,0-104.6-34.5-104.6-103.6V689.5h-28.1c-18,0-27-8.4-27-25.4
			s9-25.4,27-25.4h28.1v-49.2c0-22.6,11.3-33.9,33.9-33.9c22.3,0,33.5,11.3,33.5,33.9v49h57.1c18,0,27,8.4,27,25.4
			c0,17-9,25.4-27,25.4h-57v111.2c0,17.3,3.8,30.2,11.3,38.8s19.7,13,36.7,13c6.1,0,11.5-0.6,16.2-1.7c4.7-1.1,8.9-1.8,12.4-2.1
			c4.3-0.3,7.9,1.1,10.8,4c2.9,3.1,4.3,9.3,4.3,18.6c0,7.2-1.2,13.6-3.5,19.1c-2.3,5.7-6.6,9.5-12.7,11.6c-4.7,1.4-10.8,2.7-18.3,4
			C1992.3,907.3,1985.6,907.9,1979.8,907.9z"/>
		<path id="XMLID_35_" class="st1" d="M2183.7,907.9c-27.3,0-51-5.5-71.2-16.6c-20.2-11.2-35.7-27-46.9-47.8
			c-11.2-20.6-16.6-45.1-16.6-73.2s5.5-52.4,16.6-72.9s26.7-36.4,46.9-47.5c20.2-11.2,43.8-16.6,71.2-16.6c27.3,0,51,5.7,71.2,16.6
			c20.2,11.2,35.7,27,46.9,47.5c11.2,20.5,16.6,44.8,16.6,72.9s-5.7,52.4-16.6,73.2c-11.2,20.6-26.7,36.7-46.9,47.8
			C2234.9,902.4,2211.1,907.9,2183.7,907.9z M2183.7,856.7c20.2,0,36.4-7.3,48.6-21.8c12.2-14.5,18.3-36,18.3-64.5
			c0-28.7-6.1-50.3-18.3-64.5c-12.2-14.2-28.4-21.4-48.6-21.4c-20.2,0-36.4,7.2-48.6,21.4c-12.2,14.2-18.3,35.7-18.3,64.5
			c0,28.4,6.1,49.9,18.3,64.5C2147.4,849.4,2163.6,856.7,2183.7,856.7z"/>
		<path id="XMLID_11_" class="st1" d="M2408.7,906.8c-23.1,0-34.5-11.5-34.5-34.5V668.4c0-22.6,11-33.9,32.8-33.9
			c22,0,32.8,11.3,32.8,33.9v16.6c13-30.9,40.6-48.1,83.1-51.8c15.4-1.8,24.1,7,26,26.4c1.8,19.1-7.5,29.6-28.1,31.8l-11.9,1.1
			c-44.3,4.3-66.3,27-66.3,68v111.7C2442.6,895.4,2431.3,906.8,2408.7,906.8z"/>
		<path id="XMLID_10_" class="st1" d="M2679.6,907.9c-15.4,0-31.8-1.7-49-4.9c-17.3-3.2-32.7-8.9-46.4-16.6
			c-7.5-4.3-12.2-9.6-14.1-15.9c-1.8-6.3-1.5-12.2,0.8-17.9c2.3-5.5,6.3-9.6,11.9-12.1c5.5-2.4,12.1-2,19.7,1.7
			c14.4,6.9,27.8,11.6,40.5,14.4c12.5,2.7,25.1,4,37.3,4c17.3,0,30.1-2.9,38.6-8.9c8.4-6,12.7-13.7,12.7-23.5
			c0-15.1-11.2-24.7-33.5-29.2l-53.9-10.2c-45.7-8.7-68.6-32.4-68.6-71.2c0-17.3,4.7-32.2,14.4-44.8c9.5-12.5,22.8-22.3,39.7-29.2
			s36.4-10.2,58.2-10.2c31.6,0,59.9,7,84.6,21.1c6.9,3.7,10.8,8.6,12.1,14.8c1.2,6.3,0.6,12.2-2.1,17.9c-2.7,5.7-6.9,9.5-12.7,11.9
			c-5.8,2.3-12.4,1.7-20-1.8c-11.2-5.8-21.8-9.9-32.1-12.4s-20-3.8-29.3-3.8c-17.6,0-30.7,3.1-39.1,9.2s-12.7,14.2-12.7,24.3
			c0,15.9,10.2,25.5,30.7,29.2l53.9,10.2c23.4,4.3,41.1,12.2,53.2,23.7c12.1,11.5,18,27,18,46.4c0,26.3-10.2,46.9-30.7,61.7
			C2741,900.4,2713.6,907.9,2679.6,907.9z"/>
	</g>
	<g id="XMLID_2_">
		<g id="XMLID_5_">
			<path id="XMLID_9_" class="st1" d="M265.9,827.1l51.5,59.6c7.8,9,21.2,10.4,30.7,3.5l30.7-22.5c9.5-6.9,12.1-20.3,6.1-30.2
				l-39.3-64.8c-7.3-12.5-24.1-14.7-35-5.2C290.4,785.6,273.2,808.9,265.9,827.1L265.9,827.1z"/>
		</g>
		<g id="XMLID_4_">
			<path id="XMLID_8_" class="st1" d="M172.5,902.3c49.6-101.9,142.2-178.9,254-208.2c12.5-3.5,19.9-16.8,16-29l-11.3-34.5
				c-3.5-10.8-14.2-17.3-25.1-15.6C274.1,635.7,160.8,715.2,94.8,825.7c-6.4,10.4-3.1,24.1,7.3,30.7L172.5,902.3L172.5,902.3z"/>
		</g>
		<g id="XMLID_3_">
			<path id="XMLID_6_" class="st1" d="M191.9,643.1l-110.1-26c-11.6-2.6-23.4,3.8-26.7,15.1l-11.6,36.4c-3.5,11.3,1.7,23.4,13,28.1
				l57.4,24.1c8.2,3.5,17.7,1.7,24.1-4.3c16-14.7,33.3-27.6,51.8-39c27.2-16.3,51-28.6,87.2-41.5c9.5-3.5,16-13,15.1-23.4l-6.9-82.5
				c-0.9-11.6-10.8-20.8-22.9-20.8h-38c-12.1,0-21.5,9-22.9,20.8L191.9,643.1L191.9,643.1z"/>
		</g>
	</g>
</g>
</svg>
